<svg xmlns="http://www.w3.org/2000/svg" xmlns:xlink="http://www.w3.org/1999/xlink" viewBox="0 0 101.61 34.06" width="101.62" height="34.06">
<path d="M19.13,21.5c-.08-2.69-.51-5.35-.47-8,0-2.17.39-4.41-.36-6.49.05-.24.1-.48.14-.71.19-1-3.27-.5-3.81.46a.82.82,0,0,0-.38,1,2,2,0,0,1,.1.26,77.75,77.75,0,0,1-2.62,9.41c-.4,1.19-.89,2.35-1.3,3.53A34.05,34.05,0,0,1,8.79,17.5C7.42,14.07,6.18,10.6,4.5,7.3c.19-1.53-3.2-1.37-3.87,0a8.67,8.67,0,0,0-.44,5.21,44.7,44.7,0,0,1,.38,6.12c.05,4,.36,7.94.42,11.91A1,1,0,0,0,.9,32a3,3,0,0,0,.57.55c.9.72,3.5.11,3.49-1.27C5,27.1,4.65,23,4.54,18.87c0-.4,0-.81,0-1.21.06.14.11.29.17.43a33,33,0,0,0,2.19,4.66,21.69,21.69,0,0,1,1.8,4.67.78.78,0,0,0-.23.71c0,.18.07.29.25.36a2.66,2.66,0,0,0,2.51,0,6.34,6.34,0,0,0,.82-.42c.35-.21.89-.68.73-1.16a2.29,2.29,0,0,1-.08-.28,25.91,25.91,0,0,0,1-3.93,24.13,24.13,0,0,1,1.3-4.13l.15,1.86c.21,2.55,0,5.07,0,7.62a11.21,11.21,0,0,0,.22,2.46,11.06,11.06,0,0,1,.28,1.89A.78.78,0,0,0,16,33.83a3.32,3.32,0,0,0,2.77-.75c1.2-1.1.63-2.84.36-4.24-.45-2.34.1-5,0-7.34" transform="translate(0 0)"/><path d="M27.5,22.17c-.08-2-.77-3.86-.77-5.87a49.51,49.51,0,0,0-.16-6.89c-.11-.72-4.06.1-3.92,1.05a38.57,38.57,0,0,1,.16,6.36,39.14,39.14,0,0,0,.73,5.9c.27,2.05-.08,4.16.15,6.21.11,1,.75,2.75.09,3.58-.42.54,1.47.35,1.55.33a3.85,3.85,0,0,0,2.31-1c.65-.83.19-2.42.05-3.36a54.58,54.58,0,0,1-.19-6.27" transform="translate(0 0)"/><path d="M43.83,18.85c-2.06-2.78-5.89-.78-8.56-1.54-1.38-.39-1.4-2.27-1.39-3.39a35.85,35.85,0,0,0-.28-4.15,3.39,3.39,0,0,1,.75-2.9,3.83,3.83,0,0,1,.81-.34,8.65,8.65,0,0,1,1.07-.1c1.54-.06,4.61.24,4,2.49-.27,1,3.59.43,3.87-.64,1.22-4.6-7.28-3.71-9.68-3.08-2.21.59-4.65,1.85-4.78,4.4A36,36,0,0,0,30,13.19c.06,1.39-.2,2.77.28,4.12,1.09,3,5.52,1.57,7.78,1.74,3.85.29,2.7,5.47,2.75,7.88,0,1.29,1.18,3.43.21,4.51-.59.66-2,.7-2.79.77s-2.2.31-2.74-.46c-1-1.42.09-3.8-.12-5.43-.12-.92-4.07-.09-3.92,1.05.34,2.63-1.4,6.15,2.4,6.6a18,18,0,0,0,7.5-.93,8.81,8.81,0,0,0,3.24-1.79c1-.94.7-2.35.42-3.55-.68-2.92.73-6.28-1.17-8.85" transform="translate(0 0)"/><path d="M61.16,18.66c-.13-3.77-.69-7.51-.71-11.29,0-2-4-1.31-4,.34,0,3.61.5,7.16.69,10.76a1.55,1.55,0,0,0,0,.22c-1.95,0-3.9.18-5.85.25.2-4.63-.62-9.23-.44-13.86,0-.58-3.87-.09-3.92,1-.17,4.48.59,8.92.46,13.39-.07,2.14-.25,4.27-.26,6.4a21.07,21.07,0,0,0,.33,3.27,8.48,8.48,0,0,1,.18,3.32c-.24.77,3.56.29,3.86-.7.54-1.78-.22-4-.41-5.84a31.8,31.8,0,0,1,.09-5.25,30.13,30.13,0,0,1,6.08,0c.09,1.38.19,2.76.32,4.14.11,1.15.18,2.31.2,3.47a10.81,10.81,0,0,1-.22,3.46c-.78,2.06,3.15,1.89,3.72.37.7-1.87.5-4.2.38-6.17-.15-2.44-.48-4.87-.55-7.32" transform="translate(0 0)"/><path d="M78.09,23.14a74.51,74.51,0,0,0-3.62-7.8c1-1.95,2-3.9,2.93-5.89.83-1.81,1.45-3.82,3.08-5.09.58-.45.55-.9-.25-1a4.43,4.43,0,0,0-2.77.74,10.65,10.65,0,0,0-3.2,4.27c-.94,2.05-1.9,4.06-2.92,6.07l-.22.45a1.13,1.13,0,0,0-.64,1.26c-.79,1.57-1.6,3.12-2.5,4.61-.3-5.53-1-11.06-1.15-16.6,0-1.27-4-.48-3.92,1,.25,6.87,1.22,13.72,1.29,20.59l0,0c-.3.31-.19.49,0,.6,0,1.75,0,3.5-.2,5.26-.48.74.46,1.13,1.08,1.13h.1c.74,0,2.62-.35,2.71-1.36a60.22,60.22,0,0,0,.24-6.29,31.1,31.1,0,0,0,4.05-5.64,29.73,29.73,0,0,1,2,4.59c.86,2.74,2.3,5.26,3.13,8,.55,1.81,4.46.74,3.92-1.05-.83-2.75-2.21-5.3-3.13-8" transform="translate(0 0)"/><path d="M101.59,18.5c-.21-.83-1.37-.85-2.27-.77,0-.33,0-.67,0-1-.12-2.67-.16-5.38-.39-8-.21-2.45-1.58-3.33-4-3.24a24,24,0,0,0-7.48,1.4,7,7,0,0,0-4.56,5.68c-.55,3,.24,6.22.37,9.25.16,3.5.07,7,.06,10.52,0,.57,3.92,0,3.92-1,0-2.78,0-5.55,0-8.33,0-.82,0-1.63-.1-2.44,1.37-.6,3.69,0,5.05.14a15.88,15.88,0,0,0,3.24-.29c0,2.31.11,4.63.21,6.94,0,1.18.47,3.53-.36,4.51-.43.52,1.48.34,1.56.33a4,4,0,0,0,2.3-1c1-1.12.46-3.79.4-5.13-.08-1.91-.1-3.82-.14-5.73,1.15-.15,2.41-.86,2.2-1.71M87,18.35c-.1-1.24-.22-2.49-.3-3.74-.16-2.33.12-5.59,2.29-7a7,7,0,0,1,2.35-.44,3.69,3.69,0,0,1,2.83.19c1.21.8.91,3.66.91,4.87,0,2,.21,4,.31,6a13.32,13.32,0,0,1-1.68.08c-2.29,0-4.54-.41-6.71,0" transform="translate(0 0)"/><path d="M24.11,6.7a3.21,3.21,0,0,0,1.47-.52L25.84,6c.52-.34,1-.83.73-1.36a7.92,7.92,0,0,1-.42-3.42c0-.95-1-1.24-1.78-1.17S22.2.59,22.2,1.53a15.69,15.69,0,0,0,.11,3,2.47,2.47,0,0,0-.11.36.73.73,0,0,0,.14.59.57.57,0,0,1,0,.13c0,.11,0,.23,0,.34a.94.94,0,0,0,.43.53,2.23,2.23,0,0,0,1.32.23" transform="translate(0 0)"/></svg>