<svg xmlns="http://www.w3.org/2000/svg" xmlns:xlink="http://www.w3.org/1999/xlink" viewBox="0 0 20.3 18.85" width="20.29" height="18.85">
<path d="M19.54,7.23H16.39L13,.41a.75.75,0,0,0-1-.33.76.76,0,0,0-.34,1l3.08,6.14H5.58L8.65,1.09a.76.76,0,0,0-.34-1,.74.74,0,0,0-1,.33L3.9,7.23H.75a.75.75,0,0,0,0,1.5H.91l.85,3a.76.76,0,0,0-.31.59.74.74,0,0,0,.69.74l1.66,5.8H16.5l1.65-5.8a.73.73,0,0,0,.38-1.33l.86-3h.15a.75.75,0,0,0,0-1.5M15.36,17.35H4.93L3.71,13.06H16.59ZM17,11.56H3.28L2.47,8.73H17.83Z" transform="translate(0 0)"/></svg>