<svg xmlns="http://www.w3.org/2000/svg" xmlns:xlink="http://www.w3.org/1999/xlink" viewBox="0 0 21.77 21.33" width="21.77" height="21.33">
<path d="M21.77,12.15c0-2.4-.35-4.79-.31-7.14,0-.79-.08-1.53-.15-2.28a5.64,5.64,0,0,1-.15-1.06C20.9,1.5,20.94,1,20.7.83A7.66,7.66,0,0,0,19,.61c-.66,0-1.26-.12-1.9-.16-1.94-.1-4-.07-6-.07A43.92,43.92,0,0,1,5.37,0H3.17c-.1,0-.11.1-.23.08a8.57,8.57,0,0,0-1.6.3,2.8,2.8,0,0,1-.68.3C.52.88.15.83.05,1.06s.19.45,0,.61v.91c.18.13,0,.58.08.84v1c0,1.28.13,2.4.08,3.72a39,39,0,0,1,.07,9.42,14.23,14.23,0,0,1,.46,1.74,7.24,7.24,0,0,0,.68,1.52,6.47,6.47,0,0,0,1.9.23,4.13,4.13,0,0,0,1.14.3c2.84-.21,5.49-.15,8.42-.23a34.44,34.44,0,0,0,8.28-.22c.19-.14.13-.53.23-.76-.06-.39.2-.45.22-.76.14-2.39.17-4.79.16-7.21m-13-6.23a9.45,9.45,0,0,1,2.43-.3,10.57,10.57,0,0,1,1.9.45c.12.19-.24.55.15.69v.07c.06,0,.15,0,.16.08a1.83,1.83,0,0,1,1.06.38c.45,0,.53.47,1.14.38a2.13,2.13,0,0,0-.08.83,11.58,11.58,0,0,1,.3,4.25,2.06,2.06,0,0,0-.3.69c-.31.32-.48.78-.83,1.06a1.09,1.09,0,0,1-.46.53c-.12.21-.21.45-.46.53s-.57,0-.83-.07a3.43,3.43,0,0,0-1.21.6c-.82-.09-1.65-.17-2.43-.3a2.1,2.1,0,0,0-.84-.31A2.06,2.06,0,0,0,7.64,15c-.1-.13-.33-.12-.45-.23s-.23-.23-.46-.23c-.11-.41-.44-.62-.53-1.06a5.42,5.42,0,0,1-.45-1.21,13.12,13.12,0,0,1,.38-3.8c.34-.59.78-1.09,1.13-1.67.25,0,.37-.09.38-.3.31,0,.44-.08.69-.08s.26-.39.45-.53M7.11,3.19A3.56,3.56,0,0,1,7,2.12c0-.28.28-.27.3-.53,0-.07-.09-.06-.15-.07.13-.15.7-.1.83,0,.14.54-.35.45-.53.68,0,.17.33,0,.46.08,0,.85-.06,1.49,0,2.2H7.49c0,.23.23.22.46.23-.06.28.09.36.07.6-.22.16-.71.05-1.06.08-.1-.59.24-1.37.15-2.2m-.68-1.6c.09,0,.13,0,.15.08.18.25,0,.68-.07.91-.18-.18,0-.68-.08-1m.15,1.83c-.13-.07-.17-.24-.15-.46.13.07.17.24.15.46m0,1.36c-.06.14-.08,0-.07-.15s.08,0,.07.15M6.43,5c.18,0,.08.22.23.23,0,.19-.29.18-.38.07s.11-.19.15-.3M4.08,3.8c0-.11,0-.22-.08-.23-.07-.74.13-1.42,0-2,.25-.15.77,0,1.14-.07V2.66a.49.49,0,0,1-.38.07c0,.28.32.13.38.31a9.36,9.36,0,0,0,.15,2.43c-.56-.06-.9.1-1.44.07.1-.61,0-1.43.53-1.59,0-.14-.26-.05-.3-.15m-.53,0c-.21,0-.22-.54-.08-.61.33,0,.25.5.08.61m-.16,1a3.25,3.25,0,0,0,.08-.68c.23,0,.26.77-.08.68m.23-2.05c-.26.06-.27-.26-.15-.38s.27.27.15.38m0-1.14c0,.16-.05.2-.07.31-.18,0-.09-.22-.23-.23,0-.1.19-.06.3-.08M3.39,5.31c.15,0,.11.35-.07.23a.32.32,0,0,0,.07-.23M2.71,1.59c0,.26-.44.32-.38,0Zm-1,.08c0,.22-.32.18-.38.38-.21-.17.09-.47.38-.38m-.45.76c.22-.21.45-.41.68-.61,0-.12.07-.13.08-.23h.23c.1.39-.26.3-.31.53s-.07.14-.07.23a4.44,4.44,0,0,1,.07,1c-.27,0-.27.28-.61.23,0-.43-.13-.68-.07-1.14m.07,3.26V4.1c.2-.18.4-.36.61-.53.3.49.18,1.39.46,1.9a10.63,10.63,0,0,1-1.07.22M19.56,16.78a20.3,20.3,0,0,1-.37,2.81c-2.89.12-6,0-8.89.15-.2,0-.27,0-.23-.23-.25,0-.25.25-.53.23.2-.34.44-.9.15-1.29-.79,0-.79.82-1.13,1.29-.69,0-1.14.13-1.83.07.18-.7.75-1,.91-1.74-.39-.55-1,.14-1.21.45-.2.49-.56.81-.76,1.29h-1c.24-.46.49-.92.76-1.36s.63-.74.69-1.37c-.16-.28-.42,0-.69,0-.12.18-.27.34-.38.53a9.27,9.27,0,0,0-.68,1.14c-.18.21-.34,0-.53.23-.39.27-.58.74-1,1-.17-.06,0-.36.15-.38.05-.19-.09-.55.08-.61a2.28,2.28,0,0,1,.38-.91c.12-.74.52-1.2.68-1.9-.56.1-.67.64-1,1a6.61,6.61,0,0,0-.69,1.29c-.17-.13,0-.58-.07-.84.12-.58.29-1.12.38-1.74A2.59,2.59,0,0,0,3,15a.71.71,0,0,0-.07-.76.54.54,0,0,0-.46.3c-.19,0-.19.51-.3.31-.05-2.59-.45-4.81-.46-7.44,0-.33-.18-.42-.22-.68,1.62,0,3.12.09,4.78.22A2.85,2.85,0,0,1,6,7.36a2,2,0,0,0-.37.31A12.56,12.56,0,0,0,5,13.82a4.48,4.48,0,0,0,1,1.44c.91.48,1.64,1.15,2.51,1.67a14.15,14.15,0,0,0,5.54,0,4.55,4.55,0,0,0,.69-.38c1.36-1.24,2.75-2.46,3-4.86V10.32a5,5,0,0,0-1.75-3.64c.33-.22,1.1,0,1.67.08h.68a7.78,7.78,0,0,1,1.45,0c.14.18.11.54.22.76-.06,1.68-.19,3.3-.15,5.08.1.46.13,1,.23,1.44a16,16,0,0,1-.46,2.74m.38-11.16c-.64-.12-1.23-.29-1.89-.38.07-.33.79,0,1-.23.39-.22.3-.92.31-1.52a5,5,0,0,0,.07-1.06C19,1.48,17.63,2,16.53,2a6,6,0,0,0-.31,2.66c.17.49,1,.29,1.52.46-.14.33-.69,0-1,.07s-.7,0-1-.15c-2.29.08-4.29,0-6.53.15a17,17,0,0,0-.08-3.64h3.12c-.35.36-.92.5-1.29.83a3.13,3.13,0,0,0-1.14.91c.25.14.53-.24.76-.37s.47-.39.83-.46a5.72,5.72,0,0,1,1.67-.91,3.81,3.81,0,0,1,1,.07c1.28,0,2.45.13,3.79.08a14.44,14.44,0,0,1,2,.3,7.63,7.63,0,0,1,.3.92,26,26,0,0,1-.23,2.73M14.1,1.9c.11,0,0-.09,0,0m0,0a3.27,3.27,0,0,0-1.37.68A3.39,3.39,0,0,0,14.1,1.9m1.06.61c.11,0,0-.1,0,0m-1.74.91a6,6,0,0,0,1.74-.91c-.44,0-.59.32-1,.37-.21.22-.6.26-.75.54m-.69-.84c-.11,0,0,.09,0,0m-.68.61c.11,0,0-.09,0,0M12,3.26c.07,0,.07,0,.08-.07s-.07,0-.08.07m-.07.08c.06,0,.07,0,.07-.08s-.07,0-.07.08M11.06,4a2.1,2.1,0,0,0,.84-.61,2,2,0,0,0-.84.61m2.28,1c.53-.05.75-.42,1.21-.54.29-.29.79-.38,1-.76-.56,0-.76.4-1.21.54-.29.29-.76.41-1,.76M11.06,4c-.31-.08,0,.23,0,0m-.53.38s.11,0,.08-.08-.12,0-.08.08m2.81.61c-.11,0,0,.09,0,0M12.2,6.76c-.22-.24-.68-.24-1-.38a5.13,5.13,0,0,0-1.74.23l-.91.45a4,4,0,0,1-.76.53c-.21.23-.35.51-.69.61,0,.22-.17.28-.3.38s-.09.31-.23.38,0,.29-.07.3a18.63,18.63,0,0,0,.68,4.18c.29.62,1,.84,1.44,1.29a6.59,6.59,0,0,0,2.13.53,3.21,3.21,0,0,1,.91-.08,5.05,5.05,0,0,0,2.81-1.44,1.56,1.56,0,0,1,.45-.68c-.25-.67.3-1.1.46-1.6a8.45,8.45,0,0,0-.61-3.41c-.25-.58-.92-.75-1.36-1.14-.06,0-.16,0-.16-.08a1.33,1.33,0,0,0-1.06-.07M8.78,11.08c-.11-.06-.11-.24-.15-.38.26-.07.12.24.15.38m.08.31c0-.12.08,0,.08.07s-.08,0-.08-.07m.46-2.05c0-.09.07,0,.07,0s-.07,0-.07,0M11,7.21c-.21.26,0,.58.07.84-.3,0-.57-.89-.07-.84m.38,4s.05-.1.07-.08,0,.1-.07.08M12.12,14c0-.11.07,0,.16,0a.08.08,0,0,1-.16,0m2.21-2.58c-.24-.05-.15.21-.38.15a1.71,1.71,0,0,1,.22-.45c.14,0,.18.13.16.3M13.19,7.67a2.45,2.45,0,0,1,.6.38,2.31,2.31,0,0,0,.38.53,21.7,21.7,0,0,1,.16,2.35c-.26.1-.44.27-.69.38a4.35,4.35,0,0,1-1.89-.45l-.54-.76V9a4.54,4.54,0,0,0,.46-.6c.23-.13.51-.2.45-.61a.32.32,0,0,1-.07-.23c.16,0,.24.16.38.23.32,0,.41-.2.76-.15" transform="translate(0 0)"/></svg>