<svg xmlns="http://www.w3.org/2000/svg" xmlns:xlink="http://www.w3.org/1999/xlink" viewBox="0 0 154.38 195.33" width="27" height="34">
<path d="M78,.59,77.19.5.5,8.54V149.11l76.69,45.63,76.69-45.63V8.54Zm65.85,142.82L77.19,183.07,10.53,143.41V85.79L76.91,125.3l.11,7.16-45.54-27.1-.06,7,45.71,27.47.11,7.35L31.54,120l-.06,7,45.71,27.47,46.15-27.61v-7l0,0V97.1l20.56-12.28Zm0-66.06L125.56,88.09l-8.42,5L77,69.17l-.06,7,34.32,20.41-.31.18-.74.43L105.33,100,77,83.16l-.06,7,22.36,13.3L94,106.94l-.12.07L77,97.06l-.06,7L88,110.54l-11.29,6.78-66-39.26L76.82,38.31h0Zm0-7-67-39.51h0L10.53,70.31V17.58l66.66-7,66.66,7Z" transform="translate(0 0)"/><path d="M78,.59,77.19.5.5,8.54V149.11l76.69,45.63,76.69-45.63V8.54Zm65.85,142.82L77.19,183.07,10.53,143.41V85.79L76.91,125.3l.11,7.16-45.54-27.1-.06,7,45.71,27.47.11,7.35L31.54,120l-.06,7,45.71,27.47,46.15-27.61v-7l0,0V97.1l20.56-12.28Zm0-66.06L125.56,88.09l-8.42,5L77,69.17l-.06,7,34.32,20.41-.31.18-.74.43L105.33,100,77,83.16l-.06,7,22.36,13.3L94,106.94l-.12.07L77,97.06l-.06,7L88,110.54l-11.29,6.78-66-39.26L76.82,38.31h0Zm0-7-67-39.51h0L10.53,70.31V17.58l66.66-7,66.66,7Z" transform="translate(0 0)"/></svg>