<svg xmlns="http://www.w3.org/2000/svg" xmlns:xlink="http://www.w3.org/1999/xlink" viewBox="0 0 14.96 27.72" width="14.96" height="27.72">
<path d="M11.66,5.19a6.63,6.63,0,0,0,2.68-.3,8,8,0,0,0,.62-3c-.19,0-.06-.33-.21-.4s-.27-.19-.3-.39c-.28-.17-.46-.43-.73-.6L11.56,0A13.35,13.35,0,0,0,9,.11,6.62,6.62,0,0,0,3.72,2.5c0,.08,0,.2-.1.2C3,4.29,3.49,6.32,3.41,8.28c.1.44.11,1,.21,1.4a20.24,20.24,0,0,1-3.41.5C-.1,10.5,0,11.26,0,11.87a12.74,12.74,0,0,0,.41,1.59,3.41,3.41,0,0,0,.82.5c.07,0,.08.08.11.1.5.27,1.45,0,2.27.1-.14,2,.25,3.92,0,5.68,0,.33.29.38.2.8A8.4,8.4,0,0,0,4,23.33a2.55,2.55,0,0,0-.41,1.79c.12,0,.11.16.1.3-.07.47.64.18.52.7.16.46-.43.18-.42.5v.89a5.72,5.72,0,0,0,2.27.2c.91-.42,2.19-.48,2.79-1.19a1.29,1.29,0,0,0,1.23-.2c0-.32.28-.34.21-.7s-.17-.5-.1-.9V21.83c-.21-2.29-.05-4.93-.31-7.17a9.44,9.44,0,0,0,2.58-.4A5,5,0,0,0,13,12.37a1.59,1.59,0,0,0,.21-1c.19-.21.07-.73.1-1.1-.14-.59-.17-1.3-.82-1.39-.89-.24-2.05.59-3,.3,0-1.14-.29-2.34,0-3.39.75-.18,1.45-.4,2.17-.6M7.84,10a4,4,0,0,0,.42.69c.08,0,.2,0,.2.1a10.2,10.2,0,0,0,3.1-.3A7.44,7.44,0,0,1,11,13a9.7,9.7,0,0,1-2,.19c-.27.17-.37.51-.62.7-.05.44.15.5,0,.8-.2.14-.05.61-.2.8V17c.08.28-.15.26-.1.5v3.49c-.09.28.14.25.1.49v3c.06.27-.13.8.1.9-.07.36-.41,0-.82.1a7.8,7.8,0,0,1-1.55.4,2.74,2.74,0,0,0,.31-1.1c0-.38-.37-.31-.52-.49.2-.65.57-1.12.73-1.8.19-.51.71-1.29.31-1.79-.53-.11-.53.29-.83.4,0,.07,0,.19-.1.2s0,.19-.11.2-.15.06,0,0,0-.2.11-.2,0-.2.1-.2v-.3a5.85,5.85,0,0,0,.83-2,5,5,0,0,0,.41-1,1.3,1.3,0,0,0,.1-1.2,1,1,0,0,0-.93.7c-.32-.19.16-.43.11-.7.13-.23.17-.56.31-.79.2-.42.56-1.31,0-1.6a.67.67,0,0,0-.73.5,1.41,1.41,0,0,0-.51.7c-.38-.07-.15-.73-.21-1.1s.12-.9,0-1.2c-.56-.79-2-.1-3.2-.29a2.32,2.32,0,0,1-.1-1.2c1.05-.09,2.48.2,3.2-.2,0-.08,0-.2.1-.2.09-.72-.27-1-.51-1.39a17,17,0,0,0,.1-3c.23-.14.33-.42.51-.6.12-1,.68-1.48.73-2.49-.28,0-.61-.06-.62.2-.3-.12-.38.48-.52.2-.11-.54.25-.63.31-1,.6-.42,1.21-.82,1.86-1.2,1.74-.24,4.65-.45,6.08.2,0,.62-.28.86-.2,1.5H11.56a29.11,29.11,0,0,0-3,1c-.24.06-.28.33-.52.39a5.08,5.08,0,0,1-.31,1c-.08,1.44.13,2.6.1,4" transform="translate(0 0)"/></svg>