<svg xmlns="http://www.w3.org/2000/svg" width="23.49" height="20.17"><path d="M23.45 4.08c-.22-.36-.91-.27-1.4-.37h-1.12c.15-.35.35-.64.52-1a5.23 5.23 0 0 0 .23-1.26c.12-.17.17-.42.29-.59s.24-.48.08-.67-.3-.25-.6-.22a.48.48 0 0 0-.22.15c-.45.43-.78 1-1.26 1.4h-.07c-.01 0 0 .05-.08.08s-.26.15-.37.22a2.74 2.74 0 0 1-.89.52A6 6 0 0 0 16.71 2a6.37 6.37 0 0 0-3 .74 7.41 7.41 0 0 0-2.15 1.63c0 .32-.34.4-.37.74 0 0 0 .09-.07.08a1.12 1.12 0 0 1-.08.51c0 .14.2.44 0 .52a7.18 7.18 0 0 1-2.14-1 10.1 10.1 0 0 1-2.12-1.06A6.09 6.09 0 0 1 5 2.82c-.21-.31-.54-.49-.66-.89-.34-.16-.18-.93-.75-.88-.31-.05-.34.2-.44.37s-.36.23-.37.51c0 .05 0 .09-.07.08a17.64 17.64 0 0 0-.52 3.26 3.2 3.2 0 0 0 .59 1 1.1 1.1 0 0 0-.89.52 3.73 3.73 0 0 0 .74 2.29 3 3 0 0 0 .59 1c0 .23.21.28.3.44s.12.13.15.22.29.18.07.22c-.41.14-1 .07-1.26.38a1.91 1.91 0 0 0 0 1.11c0 .23.29.26.3.52.5.41 1.08.74 1.63 1.11a16.36 16.36 0 0 0 1.85.37 1.46 1.46 0 0 1-.59.74 19.92 19.92 0 0 1-2.74.74 15 15 0 0 1-1.56.22c-.33.13-.85.08-1.11.22s-.1.1-.22.23a.71.71 0 0 0 .44.89c0 .25.22.27.37.37a.83.83 0 0 0 .45.37 10.94 10.94 0 0 0 1.92 1.11c.83.18 1.65.37 2.52.52s1.9.12 2.82.22h1a10.09 10.09 0 0 0 1.86.07c.09-.1.32-.07.51-.07a9.37 9.37 0 0 0 1.63-.74c.58-.24 1-.64 1.56-.89a10.16 10.16 0 0 0 2.52-2.37 1.78 1.78 0 0 0 .45-.74c.26-.16.38-.46.59-.67a9.82 9.82 0 0 0 1-1.41c.32-.49.58-1 .89-1.55 0-.41.31-.49.3-.89.19-.23.18-.67.37-.89a1.37 1.37 0 0 1 .08-.6 12.33 12.33 0 0 0-.3-3.4 5.93 5.93 0 0 0 1.63-.6c.53-.18 1-.58.81-1.26m-3.4 4.08a4.83 4.83 0 0 1-1 2c.06.38-.11.54-.08.89a4.88 4.88 0 0 0-.37 1c-.2.26-.33.6-.52.89-.36.54-.77 1-1.18 1.55A18.83 18.83 0 0 1 15.52 16c-.42.5-.94.89-1.4 1.34a4.85 4.85 0 0 0-1.26.66 4.54 4.54 0 0 0-.67.3c-.18.15-.5.15-.67.3a25.2 25.2 0 0 1-3.52.16 25.49 25.49 0 0 1-3-.38 11.73 11.73 0 0 1-2.3-1c.15-.24.64-.16 1-.22 0-.17.4 0 .45-.15.26.06.28-.11.52-.08a9.44 9.44 0 0 0 1.7-.59c.28-.14.41-.43.67-.59a.74.74 0 0 1 .22-.45 2 2 0 0 0 .15-.81c.11-.21.3-.34.3-.67-.08-.15-.13-.32-.3-.37s-.38-.07-.44-.22a1.37 1.37 0 0 1-.6-.08c-.15 0-.48.09-.52-.07A3.57 3.57 0 0 1 4 12.34c.43-.26 1-.35 1.33-.74.52-.08 1.06-.13 1.12-.67 0-.72-.77-.66-1.34-.81a12.69 12.69 0 0 1-1.89-2.55c.24-.16.57-.23.74-.45.46.06.54-.25.67-.52 0-.49-.33-.6-.59-.81a3.38 3.38 0 0 1-.67-.74 18.15 18.15 0 0 1 .08-2.37c.06 0 .07 0 .07.07.23.44.56.77.82 1.19a9.24 9.24 0 0 0 1.55 1.11c.45.41 1.11.62 1.56 1a17 17 0 0 1 1.7.95c.67.2 1.06.68 2 .6l.6-.3c.25-.46-.06-1.08.14-1.63a4.42 4.42 0 0 1 1.26-1.48 9.54 9.54 0 0 0 .85-.55 5.18 5.18 0 0 0 1-.37 6.34 6.34 0 0 0 1-.15h1.26a7.43 7.43 0 0 0 .74.15 1.82 1.82 0 0 0 .67.37 4.5 4.5 0 0 1 1.41 3 9.1 9.1 0 0 0 0 1.48m.29-5.63c-.13.34-.23.7-.59.81 0-.1-.12-.12-.15-.22s.21-.18.3-.3.24-.24.44-.29c0-.09.11 0 0 0m-5.48 3c.16.13.28.31.52.37a.72.72 0 0 0 .59.37c0-.15.35 0 .37-.23.17 0 .17-.22.3-.29a2.42 2.42 0 0 0-.37-1.34.94.94 0 0 0-1.41 1.12"/></svg>